<?xml version="1.0" standalone="no"?>
<!DOCTYPE svg PUBLIC "-//W3C//DTD SVG 20010904//EN"
 "http://www.w3.org/TR/2001/REC-SVG-20010904/DTD/svg10.dtd">
<svg version="1.0" xmlns="http://www.w3.org/2000/svg"
 width="180.000000pt" height="180.000000pt" viewBox="0 0 180.000000 180.000000"
 preserveAspectRatio="xMidYMid meet">
<metadata>
Created by potrace 1.14, written by Peter Selinger 2001-2017
</metadata>
<g transform="translate(0.000000,180.000000) scale(0.100000,-0.100000)"
fill="#000000" stroke="none">
<path d="M0 1159 c0 -707 -3 -678 60 -553 19 36 42 70 52 75 19 10 205 -4 268
-21 19 -6 55 -10 80 -10 25 0 72 -7 103 -15 32 -8 69 -15 82 -15 29 0 55 34
55 72 0 14 5 39 11 55 6 15 14 61 19 102 9 80 32 117 64 105 27 -10 35 -35 76
-246 13 -67 16 -71 64 -64 51 8 165 34 230 52 26 8 68 14 91 14 37 0 47 -5 65
-30 11 -16 26 -43 31 -60 14 -38 26 -38 34 0 10 44 35 223 45 320 5 46 12 91
16 100 6 17 29 171 44 298 6 46 12 88 16 93 3 5 9 44 14 87 8 69 21 144 36
210 4 19 10 23 37 20 27 -3 32 -7 35 -33 1 -16 9 -59 17 -95 7 -36 21 -117 30
-180 9 -63 22 -146 30 -185 8 -38 21 -115 29 -170 24 -164 49 -291 60 -302 3
-4 6 224 6 505 l0 512 -900 0 -900 0 0 -641z"/>
<path d="M1576 1383 c-4 -27 -11 -75 -16 -108 -5 -33 -12 -85 -15 -115 -6 -59
-21 -155 -37 -235 -5 -27 -13 -84 -18 -125 -5 -41 -13 -100 -19 -130 -6 -30
-15 -86 -20 -125 -6 -38 -13 -87 -16 -107 -7 -44 -34 -65 -65 -48 -11 6 -20
20 -20 31 0 12 -9 32 -20 46 -11 14 -20 33 -21 42 0 9 -10 36 -22 61 -31 64
-44 64 -272 9 -22 -5 -68 -14 -103 -20 -76 -13 -88 -6 -98 57 -3 24 -11 47
-17 51 -15 9 -37 -27 -37 -63 0 -17 -8 -41 -17 -52 -19 -23 -37 -22 -223 8
-80 12 -305 41 -343 43 -27 2 -32 -6 -92 -123 -35 -69 -69 -130 -74 -137 -7
-8 -11 -75 -11 -178 l0 -165 900 0 900 0 0 138 c0 83 -4 142 -11 149 -5 5 -14
46 -19 89 -5 43 -16 120 -25 169 -28 158 -45 268 -56 349 -5 43 -12 83 -15 88
-5 8 -12 47 -49 283 -22 141 -27 165 -36 165 -4 0 -10 -21 -13 -47z"/>
</g>
</svg>
